# xmcd
#
# Track frame offsets:
#	150
#	21817
#	39075
#	53365
#	74312
#	87981
#	113328
#	131744
#	149169
#	167369
#	192876
#	204438
#	222413
#	246931
#	265891
#	275506
#	291817
#	313562
#	331321
#
# Disc length: 4777 seconds
#
# Revision: 2
# Processed by: cddbd v1.5.2PL0 Copyright (c) Steve Scherf et al.
# Submitted via: EZCDAudioConverter 6.0.0.1
#
DISCID=1412a713
DTITLE=Various Artist - Akella Presents - vol.70 - Russia-Blues  CD1 (com)
DYEAR=2016
DGENRE=Blues
TTITLE0=Anatoly Jemaev - To Be
TTITLE1=Blues Cousins - Rain
TTITLE2=Alexander Dolgov - August 
TTITLE3=Wild Honey - You're My Angel
TTITLE4=Gensler Blues Band - Yeard's Blues
TTITLE5=Big Blues Revival - Trash
TTITLE6=Krama Group and Nikolay Arutyunov - Run The Kid
TTITLE7=Road To Mississippi - Street Blues
TTITLE8=Madera Hard Blues - Harley Davidson 
TTITLE9=Alexey Shedko - I'm Writing This The Blues
TTITLE10=Crossroads - Tuesday 
TTITLE11=Evgeny Margulis - My Best Friend Plays The Blues
TTITLE12=Asanbai -  - Blues At The Bus Stop
TTITLE13=Andrew Kozlowski - Coin
TTITLE14=Vis Vitalis - Falling, Yes!
TTITLE15=Chizh and Co - Latest Money
TTITLE16=Wild Honey - Bye, Old Friend
TTITLE17=Black Bread and Dr. Agranovsky - Too late
TTITLE18=Ksenia Fedulova - Sing Black Man Sing
EXTD=
EXTT0=
EXTT1=
EXTT2=
EXTT3=
EXTT4=
EXTT5=
EXTT6=
EXTT7=
EXTT8=
EXTT9=
EXTT10=
EXTT11=
EXTT12=
EXTT13=
EXTT14=
EXTT15=
EXTT16=
EXTT17=
EXTT18=
PLAYORDER=
